<?xml version="1.0" encoding="utf-8"?>
<!-- Generator: Adobe Illustrator 12.0.0, SVG Export Plug-In . SVG Version: 6.00 Build 51448)  -->
<!DOCTYPE svg PUBLIC "-//W3C//DTD SVG 1.1//EN" "http://www.w3.org/Graphics/SVG/1.1/DTD/svg11.dtd" [
	<!ENTITY ns_svg "http://www.w3.org/2000/svg">
	<!ENTITY ns_xlink "http://www.w3.org/1999/xlink">
]>
<svg  version="1.1" id="Ebene_1" xmlns="&ns_svg;" xmlns:xlink="&ns_xlink;" width="636.328" height="118.447"
	 viewBox="0 0 636.328 118.447" overflow="visible" enable-background="new 0 0 636.328 118.447" xml:space="preserve">
<g id="layer1">
	<path fill="#C6C7C8" d="M636.303,58.471c-0.623,0.625-11.567,3.751-24.074,7.191c-12.824,3.126-26.267,6.566-30.022,7.817
		c-4.689,1.563-7.188,0.938-7.188-1.563c0-2.814-28.141-3.128-117.882-1.564c-65.034,1.251-145.397,1.878-178.228,1.878
		c-56.595-0.313-60.659,0-66.598,5.94c-14.699,14.695-3.126,36.271,15.32,28.454c7.502-3.44,7.816-3.127,2.189,1.25
		c-3.438,2.502-7.817,4.689-9.692,4.689c-6.569,0-17.197-10.006-17.197-16.259c0-5.629-0.941-5.316-10.944,3.439
		c-6.255,5.316-13.446,9.381-16.573,9.381c-5.003-0.313-5.003-0.625,0.312-1.877c2.815-0.624,4.69-2.501,3.753-4.064
		c-0.938-1.563,1.25-4.689,4.69-7.19c3.44-2.19,5.316-5.317,3.753-6.88c-1.252-1.563-0.313-1.563,1.875-0.313
		c2.191,1.25,4.689,0.313,5.629-2.501c0.938-2.813,3.438-4.066,5.314-2.813c1.878,0.937,2.192,0.311,0.94-1.563
		c-0.94-1.878,0.623-4.692,3.438-6.567c3.126-1.876,4.067-3.439,2.189-3.439c-1.878,0-5.938,2.813-9.066,6.253
		c-5.63,6.253-12.822,5.627-9.069-0.938c1.25-2.188-2.813,1.252-9.38,6.878c-9.38,9.068-11.883,10.319-15.321,6.879
		c-2.189-2.501-2.189-3.438-0.313-2.501c2.188,1.253,5.314,0.313,7.191-2.188c2.814-3.127,2.19-5.002-1.25-8.13
		c-4.064-3.439-5.003-3.439-4.064,0c0.625,2.189-0.939,4.69-3.44,5.627c-2.502,0.939-3.44,0-2.189-2.187
		c1.563-2.19,0.313-2.813-3.44-1.564c-5.314,1.564-5.314,1.564,0-2.814c6.879-5.628,0.626-9.38-8.128-4.688
		c-4.065,1.875-7.193,1.562-10.943-1.253c-4.066-3.438-4.379-3.438-2.19,0.313c1.877,3.439,1.251,4.065-2.813,2.501
		c-3.439-1.562-4.69-0.937-3.127,1.564c1.564,2.501,0.625,2.814-2.814,1.563c-2.816-0.939-5.002-0.626-4.378,1.252
		c0.939,4.063-31.58,24.074-43.149,26.264c-7.504,1.251-8.131,0.938-3.127-1.25c4.691-2.19,1.877-3.128-11.881-3.128
		c-16.573-0.312-19.074-1.248-31.894-13.132c-7.817-7.191-13.133-14.383-11.881-16.258c0.937-1.564,0.624-2.503-0.939-1.253
		c-1.563,0.939-6.567-1.563-11.257-5.316L0,57.845l16.259-13.443C37.834,27.204,59.41,15.947,61.286,20.95
		c0.937,2.188,3.127,4.065,5.002,4.065c6.566,0,40.023,28.141,37.834,31.893c-1.25,1.875-0.936,2.501,1.25,1.25
		c1.877-0.939,6.879-0.313,11.257,1.564c6.253,2.813,9.067,2.813,12.507,0c3.126-2.503,6.566-2.814,10.319-0.939
		c3.126,1.563,12.818,3.126,21.261,3.126l15.634,0.625l-12.508-5.94c-13.444-5.94-41.898-28.453-36.271-28.453
		c1.877,0,9.068,5.003,15.947,11.257c6.879,6.253,18.761,13.131,26.891,15.632c20.011,5.941,23.451,5.628,12.194-1.875
		c-5.002-3.44-9.38-7.504-9.38-9.067s-1.25-4.065-2.814-5.629c-1.563-1.563-1.876-0.938-0.625,1.253
		c3.126,5.627-0.625,5.001-10.005-1.877c-11.257-7.817-29.705-13.446-35.958-10.944c-4.066,1.564-2.19,4.69,9.691,16.259
		c8.443,8.13,10.007,10.319,4.066,4.69c-6.253-5.314-16.26-12.819-22.201-16.571c-6.879-4.378-8.443-5.941-3.753-4.69
		c10.633,3.126,8.13-0.626-4.064-6.568c-17.198-8.128-11.571-7.816,15.634,0.313c13.757,4.378,26.265,7.818,28.141,7.818
		c5.627,0-3.127-5.317-20.95-12.194c-10.005-4.065-19.699-9.381-21.888-12.194c-3.439-4.066-2.814-4.066,5.942,0.311
		c5.627,3.127,12.194,5.316,15.008,5.316c2.501,0,4.69,1.251,4.69,2.814c0,1.25,3.127,1.876,6.879,1.25
		c4.064-0.625,15.321,2.815,25.326,7.816l18.449,9.381l-9.068-9.381c-4.69-5.314-12.819-12.194-18.135-15.321
		C152.587,2.501,149.461,0,151.024,0c6.566,0,24.702,14.384,34.708,27.204c7.504,10.004,10.945,12.508,10.945,8.754
		c0-14.696,27.827-27.828,32.517-15.321c2.813,7.505,2.19,9.694-3.126,11.882c-4.375,1.563-4.69,1.25-1.564-2.501
		c9.38-11.256-5.939-15.009-17.511-4.377c-11.878,11.255-8.129,27.515,8.131,32.204c6.254,1.877,7.191,1.251,5.628-3.125
		c-1.563-3.44,0.941-8.131,6.88-14.384c7.191-7.191,11.881-9.067,21.261-8.755l11.885,0.625l-11.573,1.875
		c-14.07,2.189-25.326,10.944-23.763,18.448c0.941,4.689,5.943,5.315,52.533,4.378c28.453-0.626,74.729-2.188,103.184-3.752
		c81.297-4.378,201.048-4.378,230.442,0.313C625.982,55.656,636.925,57.845,636.303,58.471z M574.707,60.659
		c0-3.44-0.941-4.377-1.88-1.875c-0.935,2.189-0.624,5.002,0.316,5.941C574.077,65.975,575.019,64.099,574.707,60.659z
		 M565.327,57.532c0-3.438-0.94-4.376-1.882-1.876c-0.934,2.189-0.622,5.003,0.318,5.942
		C564.697,62.848,565.639,60.972,565.327,57.532z M558.756,59.409c0-4.378-0.622-5.94-1.563-3.753c-0.625,1.876-0.625,5.629,0,7.817
		C558.134,65.349,558.756,63.786,558.756,59.409z M552.502,59.409c0-4.378-0.623-5.94-1.563-3.753c-0.622,1.876-0.622,5.629,0,7.817
		C551.879,65.349,552.502,63.786,552.502,59.409z M546.878,59.409c0-3.44-1.876-6.253-4.379-6.253c-2.814,0-3.752,2.188-2.814,6.253
		c0.939,3.439,2.814,6.254,4.378,6.254C545.625,65.663,546.878,62.848,546.878,59.409z M534.058,57.532
		c0-3.438-0.938-4.376-1.878-1.876c-0.935,2.189-0.623,5.003,0.313,5.942C533.432,62.848,534.373,60.972,534.058,57.532z
		 M528.118,57.532c0-2.501-1.253-4.376-3.127-4.376c-1.563,0-3.126,2.813-3.126,6.566c0,3.439,1.563,5.314,3.126,4.377
		C526.865,63.162,528.118,60.035,528.118,57.532z M518.107,59.409c0-4.378-0.622-5.94-1.563-3.753c-0.622,1.876-0.622,5.629,0,7.817
		C517.485,65.349,518.107,63.786,518.107,59.409z M506.232,59.409c0-3.44-1.254-6.253-3.129-6.253c-1.563,0-3.126,2.813-3.126,6.253
		c0,3.439,1.563,6.254,3.126,6.254C504.979,65.663,506.232,62.848,506.232,59.409z M496.85,59.409c0-3.44-1.251-6.253-3.126-6.253
		c-1.563,0-3.126,2.813-3.126,6.253c0,3.439,1.563,6.254,3.126,6.254C495.599,65.663,496.85,62.848,496.85,59.409z M487.47,58.471
		c0-6.878,19.695-6.878-170.411,0.938c-39.399,1.563-80.362,3.126-90.677,3.439c-15.949,0.625-13.76,0.938,12.507,3.44
		c17.198,1.25,80.045,1.563,140.077,0.624C484.966,65.037,487.47,64.724,487.47,58.471z M186.358,39.398
		c-5.942-5.942-17.198-13.758-25.328-17.511c-18.761-7.817-26.891-8.13-9.38-0.313c7.191,3.127,14.07,7.504,15.32,9.694
		c1.877,2.813,0.938,2.813-4.064,0.312c-9.38-5.002-12.507-4.065-4.69,1.251c3.751,2.5,8.754,4.064,11.255,3.126
		c4.066-1.876,10.632,3.441,11.257,8.755c0.312,1.252,1.25,2.189,2.813,2.502c1.251,0.313,4.69,1.563,7.817,3.126
		C199.175,54.72,197.926,51.905,186.358,39.398z M196.677,91.302c0-0.938-2.815,0.938-6.255,4.064
		c-3.44,3.128-6.253,6.254-6.253,7.191c0,0.939,2.813-0.938,6.253-4.063C193.862,95.367,196.677,92.24,196.677,91.302z
		 M115.379,73.481l7.817-4.065l-8.443,0.312c-4.377,0.314-7.504,1.877-6.253,3.441c0.939,1.563-0.625,1.875-3.752,0.937
		c-2.813-1.25-4.689-0.937-3.439,0.626c0.938,1.562-3.44,5.94-9.381,9.692c-12.194,7.503-12.82,12.194-0.938,6.253
		c6.878-3.438,6.878-3.126,0.938,1.563c-3.439,2.501-8.13,3.754-10.943,2.813c-2.501-1.25-8.131-2.188-12.195-2.188
		c-5.316,0.313-1.563-3.125,13.758-12.506c11.57-7.191,19.387-13.447,17.511-14.071c-6.88-2.189-17.824,2.188-32.519,13.444
		c-7.816,5.94-16.886,10.943-20.013,10.943s0.313-2.813,7.192-6.566c7.191-3.438,15.634-9.379,18.762-12.819
		c6.253-7.191,3.126-5.941-11.883,4.379c-5.002,3.438-10.318,5.002-12.195,3.751c-2.5-1.25-2.813-0.937-1.563,1.251
		c1.25,2.189,0.939,3.752-0.938,3.752c-8.442,0-5.003-5.939,6.254-10.942c6.878-3.128,13.132-6.568,13.758-7.506
		c0.313-0.938-6.566-1.876-15.634-1.876c-9.068,0-15.947,0.938-15.321,2.189c0.625,1.25-1.564,2.814-5.002,4.064
		c-9.068,2.815-7.817,6.566,4.064,10.632c6.879,2.502,8.756,4.376,5.941,6.253c-5.941,3.438,7.817,9.067,21.262,8.129
		c5.94-0.313,14.384,0.938,18.449,2.815c6.253,2.814,8.443,1.876,14.697-5.316c4.063-4.69,8.44-8.442,9.692-8.442
		c1.563,0,2.501-1.563,2.501-3.438C107.562,79.107,111.001,75.669,115.379,73.481z M89.738,44.713
		C77.857,33.769,61.91,25.015,53.78,25.015c-3.127,0,0,2.813,6.881,5.941c6.878,3.126,17.822,10.006,24.7,15.633
		c6.567,5.316,12.507,9.693,13.133,9.693C100.996,56.282,99.432,54.094,89.738,44.713z M99.745,61.599
		c-0.626-3.128-39.711-28.143-47.528-30.331c-14.695-4.378-14.07-1.563,1.251,5.939c13.445,6.254,36.896,22.201,33.143,22.201
		c-1.25,0-10.318-4.689-20.324-10.631c-10.005-5.94-22.199-11.882-27.516-12.82c-6.253-1.563-3.439,0.938,9.068,7.505
		c10.32,5.629,19.387,10.319,20.011,11.257c2.815,2.813-20.324-0.938-26.578-4.065c-9.38-5.315-13.132-4.378-5.941,0.938
		c7.817,5.939,5.003,5.939-5.627,0.313c-8.13-4.066-8.13-4.377-1.563-5.94c3.751-0.939,10.943,0.312,15.634,2.813
		c4.69,2.188,10.004,4.378,11.256,4.378c1.251-0.313-2.501-3.127-9.068-6.253c-9.381-5.004-13.132-5.628-20.949-2.814
		c-7.192,2.5-8.755,4.063-5.941,7.191c4.691,5.002,4.691,5.002,33.77,6.565c12.82,0.626,28.766,1.877,35.333,2.814
		C94.429,61.285,99.745,61.91,99.745,61.599z M89.427,83.173c6.253-4.376,10.631-8.13,9.067-8.13
		c-4.065,0-24.39,13.132-22.514,14.697C76.607,90.676,82.86,87.55,89.427,83.173z M30.956,67.225c0-1.563-5.317-3.752-21.888-9.693
		c-4.065-1.25-4.065-0.938,0,2.814c2.5,2.502,8.443,5.316,13.444,6.566C27.202,67.852,30.956,68.164,30.956,67.225z"/>
	<path fill="#C6C7C8" d="M241.076,88.175c-8.755,4.377-22.512-1.251-22.512-9.068c0-4.376,0.935-4.063,5.003,1.878
		c4.063,5.628,7.191,6.878,15.006,5.628C247.329,85.048,247.64,85.048,241.076,88.175z"/>
	<path fill="#C6C7C8" d="M235.762,53.782c-4.067,0.938-6.882,0.312-5.942-0.939c0.938-1.563,4.378-2.814,7.817-2.814
		C246.077,50.028,245.143,52.218,235.762,53.782z"/>
	<path fill="#C6C7C8" d="M184.794,86.3c-5.003,9.693-27.516,29.078-36.271,31.268c-4.066,0.938-10.944,1.25-14.697,0.313
		c-5.003-0.938-3.439-1.563,4.377-1.877c10.006-0.313,15.009-3.127,30.956-18.136C179.791,87.863,186.669,82.547,184.794,86.3z"/>
	<path fill="#C6C7C8" d="M163.844,96.93c-4.69,7.504-22.513,13.135-45.025,14.385c-23.138,0.936-23.45,0.936-8.13-2.189
		c8.754-1.877,18.135-3.44,20.951-3.752c2.813-0.313,4.377-1.563,3.438-3.127c-0.938-1.563,0.939-2.188,4.065-1.563
		c3.44,0.624,5.941-0.938,5.941-3.439c0-2.503,1.876-5.004,4.377-5.941c2.502-0.938,3.439,0,2.189,1.876
		c-0.939,1.875-0.626,4.065,0.937,5.316c1.877,0.938,2.502-0.938,1.877-4.691c-0.626-3.439,0.313-7.19,2.189-8.13
		c1.875-1.25,2.501-0.937,1.564,0.939c-1.252,1.875,0,4.376,2.813,5.313C163.531,92.866,164.782,95.053,163.844,96.93z"/>
	<path fill="#C6C7C8" d="M149.773,77.858c-4.376,3.44-9.067,5.939-10.944,5.315c-1.563-0.626-5.627,0.937-8.442,3.751
		c-3.439,2.816-5.628,3.127-5.628,1.251c0-4.378,12.821-13.444,15.947-11.256c1.563,0.938,5.941,0,9.693-1.876
		C156.964,71.917,156.964,71.917,149.773,77.858z"/>
	<path fill="#C6C7C8" d="M146.647,87.55c-12.82,10.007-32.519,18.761-42.525,18.448h-9.067l7.817-3.128
		c4.064-1.874,10.006-5.313,13.133-8.13c2.813-2.501,6.565-3.752,8.127-2.814c1.564,0.939,4.691-0.313,6.881-2.813
		c1.876-2.189,5.316-3.753,7.816-2.813c2.19,0.938,5.004,0.313,6.254-1.563c0.938-1.876,3.752-3.438,5.627-3.438
		C152.9,81.298,151.024,84.11,146.647,87.55z"/>
	<path fill="#C6C7C8" d="M127.573,58.158c-1.876,0.938-11.256-6.878-21.262-17.509c-14.07-15.321-20.95-20.012-30.331-21.888
		L63.786,16.26l11.258-0.313c13.445-0.313,31.58,5.314,29.078,9.38c-0.936,1.563-3.126,1.876-5.003,0.938
		c-2.188-1.251-2.5-0.625-1.25,1.563c1.25,1.877,3.44,2.814,5.004,1.877c2.813-1.877,10.006,5.939,7.816,8.754
		c-0.937,1.253-0.626,1.564,0.626,0.626c1.25-0.938,5.942,2.189,10.945,6.879C132.263,55.656,132.263,55.344,127.573,58.158z
		 M118.192,45.339c-1.875-1.25-3.75-1.563-4.69-0.626c-0.938,0.626,0.626,2.189,3.44,3.126
		C122.259,50.028,123.196,48.152,118.192,45.339z"/>
</g>
</svg>
